<svg width="24" height="24" viewBox="0 0 24 24" fill="none" xmlns="http://www.w3.org/2000/svg">
<path d="M2 3H20" stroke="#E2E2E2" stroke-linecap="round" stroke-linejoin="round"/>
<path d="M6.5 3V16" stroke="#E2E2E2" stroke-linecap="round" stroke-linejoin="round"/>
<path d="M11.5 3V16" stroke="#E2E2E2" stroke-linecap="round" stroke-linejoin="round"/>
<path d="M6.5 21C7.88071 21 9 19.8807 9 18.5C9 17.1193 7.88071 16 6.5 16C5.11929 16 4 17.1193 4 18.5C4 19.8807 5.11929 21 6.5 21Z" stroke="#E2E2E2" stroke-linecap="round" stroke-linejoin="round"/>
<path d="M11.5 21C12.8807 21 14 19.8807 14 18.5C14 17.1193 12.8807 16 11.5 16C10.1193 16 9 17.1193 9 18.5C9 19.8807 10.1193 21 11.5 21Z" stroke="#E2E2E2" stroke-linecap="round" stroke-linejoin="round"/>
<path d="M19.5 21C20.8807 21 22 19.8807 22 18.5C22 17.1193 20.8807 16 19.5 16C18.1193 16 17 17.1193 17 18.5C17 19.8807 18.1193 21 19.5 21Z" stroke="#E2E2E2" stroke-linecap="round" stroke-linejoin="round"/>
<path d="M19.5 16L17 3" stroke="#E2E2E2" stroke-linecap="round" stroke-linejoin="round"/>
</svg>
